**ABCDEFGHIJKLMNOPQRSTUVWXYZabcdefghijklmnopqrstuvwxyz**************************
**PARASOLID !"#$%&'()*+,-./:;<=>?@[\]^_`{|}~0123456789**************************
**PART1;
MC=AMD64;
MC_MODEL=Intel64 Family 6 Model 58 Stepping 9, GenuineIntel;
MC_ID=unknown;
OS=Windows_NT;
OS_RELEASE=unknown;
FRU=Parasolid Version 25.1, build 213, 10- 4-2013;
APPL=SolidWorks 2014-2013317;
SITE=;
USER=unknown;
FORMAT=text;
GUISE=transmit;
KEY=makeProjectedPlanarWire;
FILE=makeProjectedPlanarWire.x_t;
DATE=Sun Nov 23 17:30:55 2014;
**PART2;
SCH=SCH_2501213_25001;
USFLD_SIZE=0;
**PART3;
**END_OF_HEADER*****************************************************************
T51 : TRANSMIT FILE created by modeller version 250121323 SCH_2501213_25001_1300
6189 0 12 29 CCCCCCCCCCCCCDI5 owner1040 0 CCCCCCCCCA16 index_map_offset0 0 1 dA9
 index_map82 0 A17 node_id_index_map82 0 A20 schema_embedding_map82 0 A5 child12
 0 A14 lowest_node_id0 0 1 dZ1 53 0 0 0 0 0 0 1e3 1e-8 0 2 0 1 0 3 1 3 4 5 6 7 8
 9 0 0 0 0 0 0 13 255 3 42 0 1 0 10 0 0 7 10 50 255 4 2 0 10 0 0 0 +0 0 -.01 0 0
 -1 -1 0 0 31 255 5 20 0 8 11 0 0 +.0415 -.0150054212984264 -.01 0 0 -1 -1 0 0 .
001 29 255 6 51 0 9 12 0 .0419026314166418 -.01719228421429955 -.01 19 8 CCCCCCC
A5 owner12 0 Z7 41 0 1 0 0 3 V0 16 255 8 19 0 ?13 0 14 5 0 0 1 18 255 9 49 0 15
 0 16 6 ?1 17 255 15 0 0 0 0 9 17 18 0 19 -18 16 46 0 20 9 21 12 ?1 17 20 0 0 0
 0 16 22 23 0 24 -18 21 43 0 25 16 26 27 ?1 29 12 48 0 16 27 6 .04 -.01909034535
05393 -.01 29 27 45 0 21 28 12 .04 -.0175757623257888 -.01 29 28 35 0 26 29 27 .
04 -.0199843770122306 -.01 18 26 33 0 22 21 30 28 ?1 29 29 32 0 30 31 28 .04 -.0
150054212984264 -.01 18 30 30 0 32 26 33 29 ?1 29 31 29 0 33 34 29 .041684607580
88585 -.0100460280704009 -.01 18 33 27 0 35 30 36 31 1e-7 1 29 34 26 0 36 37 31
 .04280455932336075 -.01323394593256682 -.01 18 36 24 0 38 33 39 34 ?1 29 37 23
 0 39 0 34 .0421346153846161 -.01711190256196125 -.01 18 39 21 0 17 36 0 37 ?1 1
7 17 0 40 38 19 39 15 18 0 41 +15 255 40 5 0 19 10 42 17 38 0 40 35 17 36 41 43
 0 44 -17 19 0 40 17 22 9 45 46 0 0 +16 18 50 0 ?17 46 0 47 46 46 1 17 41 0 0 0
 0 39 38 43 0 0 +16 43 9 0 ?41 48 46 49 0 0 1 16 48 11 0 ?35 50 43 51 0 0 1 16 4
6 7 0 ?19 43 18 47 18 18 1 31 49 10 0 43 47 51 0 +.0415 -.0150054212984264 -.01
 0 0 -1 -1 0 0 .002200000000003355 31 47 8 0 46 0 49 0 +.043 -.0199843770122306
 -.01 0 0 -1 -1 0 0 .003 133 255 51 12 0 48 49 52 0 +52 .0428045593233624 -.0132
339459325646 -.01 .04168460758088505 -.01004602807040068 -.01 5.34714554099374 6
.54353990137341 31 52 13 0 1 51 53 54 +.04458350385521625 -.01081829770639484 -.
01 0 0 -1 -1 0 0 .00300000000000164 133 53 15 0 50 52 55 0 +55 .0416846075808858
5 -.0100460280704009 -.01 .04 -.0150054212984264 -.01 3.40087846861034 3.5345930
089278 141 255 54 51 54 54 52 16 50 14 0 ?32 23 48 53 0 0 1 32 255 55 16 0 1 53
 11 56 +.003648410230231085 0 -.01 0 0 -1 -1 609693214911227e-31 0 .039351589769
7689 .03918255826137395 30 255 11 18 0 14 55 5 0 +.04 0 -.01 0 -1 0 141 56 53 56
 56 55 16 14 17 0 ?57 8 58 11 23 58 1 17 57 0 40 24 32 21 59 14 0 0 +16 58 44 0
 ?24 14 23 11 14 23 1 16 23 47 0 ?22 58 50 11 58 14 1 17 22 0 40 19 24 26 20 23
 0 45 +17 24 0 40 22 57 16 25 58 0 0 +17 45 0 0 0 0 26 19 46 0 0 -17 25 0 0 0 0
 21 24 58 0 57 -17 32 0 40 57 35 30 60 50 0 59 +17 59 0 0 0 0 30 57 14 0 0 -17 3
5 0 40 32 38 33 44 48 0 60 +17 60 0 0 0 0 33 32 50 0 0 -17 44 0 0 0 0 36 35 48 0
 0 -14 255 10 1 0 ?0 0 40 3 4 -0 0 0 0 3 15 42 6 0 13 10 0 17 13 0 42 13 13 0 61
 8 0 0 +17 61 0 0 0 0 0 13 8 0 0 -1 0 
